<svg xmlns="http://www.w3.org/2000/svg" width="720" height="320" viewBox="0 0 720 320" role="img">
  <rect width="100%" height="100%" rx="24" fill="#f8fafc"/>
  <text x="360" y="42" text-anchor="middle" font-family="Arial, sans-serif" font-size="22" font-weight="700" fill="#334155">Breakdown</text>
  <rect x="285" y="80" width="150" height="58" rx="16" fill="#fef3c7" stroke="#1e293b" stroke-width="2"/>
  <text x="360" y="116" text-anchor="middle" font-family="Arial, sans-serif" font-size="22" font-weight="700" fill="#0f172a">GOAL</text>
  <path d="M360 138 V170 H108 V190" fill="none" stroke="#64748b" stroke-width="2"/>
  <rect x="80" y="190" width="85" height="60" rx="14" fill="#e0f2fe" stroke="#1e293b" stroke-width="2"/>
  <text x="122" y="227" text-anchor="middle" font-family="Arial, sans-serif" font-size="24" font-weight="700" fill="#0f172a">A</text>
  <path d="M360 138 V170 H273 V190" fill="none" stroke="#64748b" stroke-width="2"/>
  <rect x="245" y="190" width="85" height="60" rx="14" fill="#e0f2fe" stroke="#1e293b" stroke-width="2"/>
  <text x="287" y="227" text-anchor="middle" font-family="Arial, sans-serif" font-size="24" font-weight="700" fill="#0f172a">B</text>
  <path d="M360 138 V170 H438 V190" fill="none" stroke="#64748b" stroke-width="2"/>
  <rect x="410" y="190" width="85" height="60" rx="14" fill="#e0f2fe" stroke="#1e293b" stroke-width="2"/>
  <text x="452" y="227" text-anchor="middle" font-family="Arial, sans-serif" font-size="24" font-weight="700" fill="#0f172a">C</text>
  <path d="M360 138 V170 H603 V190" fill="none" stroke="#64748b" stroke-width="2"/>
  <rect x="575" y="190" width="85" height="60" rx="14" fill="#e0f2fe" stroke="#1e293b" stroke-width="2"/>
  <text x="617" y="227" text-anchor="middle" font-family="Arial, sans-serif" font-size="24" font-weight="700" fill="#0f172a">D</text>
</svg>